<?xml version="1.0" standalone="no"?>
<!DOCTYPE svg PUBLIC "-//W3C//DTD SVG 20010904//EN"
 "http://www.w3.org/TR/2001/REC-SVG-20010904/DTD/svg10.dtd">
<svg version="1.0" xmlns="http://www.w3.org/2000/svg"
 width="700.000000pt" height="700.000000pt" viewBox="0 0 700.000000 700.000000"
 preserveAspectRatio="xMidYMid meet">
<metadata>
Created by potrace 1.14, written by Peter Selinger 2001-2017
</metadata>
<g transform="translate(0.000000,700.000000) scale(0.100000,-0.100000)"
fill="#000000" stroke="none">
<path d="M925 6994 c-11 -2 -45 -9 -75 -15 -394 -76 -709 -370 -817 -764 l-28
-100 0 -2610 0 -2610 22 -86 c61 -240 197 -448 386 -593 136 -104 322 -184
477 -204 30 -4 1216 -7 2635 -7 l2580 0 86 22 c193 49 357 141 494 278 98 98
122 128 179 230 51 91 67 132 104 260 l27 90 0 2610 0 2610 -24 90 c-52 198
-140 355 -275 491 -128 127 -256 207 -423 263 -152 51 -34 49 -2773 49 -1405
0 -2564 -2 -2575 -4z"/>
</g>
</svg>
